<?xml version="1.0" encoding="utf-8"?>
<!-- Generated by Mocodo 4.2.1 -->
<svg width="518" height="289" viewBox="0 0 518 289" xmlns="http://www.w3.org/2000/svg">
<rect x="0" y="0" width="518" height="289" fill="#f7f7f7" stroke="none" stroke-width="0"/>

<!-- Association DEFINI -->
<g>
	<line x1="49" y1="94" x2="146" y2="94" stroke="#8073ac" stroke-width="2"/>
	<line x1="243" y1="94" x2="146" y2="94" stroke="#8073ac" stroke-width="2"/>
	<polygon points="203 94 191 100 195 94 191 88" fill="#8073ac" stroke-width="0"/>
	<g>
		<path d="M157 69 a14 14 90 0 1 14 14 V94 h-50 V83 a14 14 90 0 1 14 -14" fill="#b2abd2" stroke="#b2abd2" stroke-width="0"/>
		<path d="M171 94 v11 a14 14 90 0 1 -14 14 H135 a14 14 90 0 1 -14 -14 V94 H50" fill="#d8daeb" stroke="#d8daeb" stroke-width="0"/>
		<rect x="121" y="69" width="50" height="50" fill="none" rx="14" stroke="#8073ac" stroke-width="2"/>
		<line x1="121" y1="94" x2="171" y2="94" stroke="#8073ac" stroke-width="1"/>
		<text x="128" y="86.75" fill="#000000" font-family="Verdana" font-size="12">Défini</text>
	</g>
	<text x="94" y="111" fill="#b35806" font-family="Verdana" font-size="12">0,N</text>
	<text x="177" y="111" fill="#b35806" font-family="Verdana" font-size="12">1,1</text>
</g>

<!-- Association FAIT_PAR -->
<g>
	<line x1="243" y1="94" x2="347" y2="94" stroke="#8073ac" stroke-width="2"/>
	<line x1="466" y1="94" x2="347" y2="94" stroke="#8073ac" stroke-width="2"/>
	<polygon points="423 94 411 100 415 94 411 88" fill="#8073ac" stroke-width="0"/>
	<g>
		<path d="M365 69 a14 14 90 0 1 14 14 V94 h-64 V83 a14 14 90 0 1 14 -14" fill="#b2abd2" stroke="#b2abd2" stroke-width="0"/>
		<path d="M379 94 v11 a14 14 90 0 1 -14 14 H329 a14 14 90 0 1 -14 -14 V94 H64" fill="#d8daeb" stroke="#d8daeb" stroke-width="0"/>
		<rect x="315" y="69" width="64" height="50" fill="none" rx="14" stroke="#8073ac" stroke-width="2"/>
		<line x1="315" y1="94" x2="379" y2="94" stroke="#8073ac" stroke-width="1"/>
		<text x="322" y="86.75" fill="#000000" font-family="Verdana" font-size="12">Fait_Par</text>
	</g>
	<text x="288" y="86" fill="#b35806" font-family="Verdana" font-size="12">1,1</text>
	<text x="396" y="111" fill="#b35806" font-family="Verdana" font-size="12">0,N</text>
</g>

<!-- Association JOUENT_DANS -->
<g>
	<line x1="243" y1="94" x2="347" y2="229" stroke="#8073ac" stroke-width="2"/>
	<polygon points="283 145.92 295.08 151.77 287.88 152.26 285.57 159.09" fill="#8073ac" stroke-width="0"/>
	<line x1="466" y1="229" x2="347" y2="229" stroke="#8073ac" stroke-width="2"/>
	<g>
		<path d="M380 204 a14 14 90 0 1 14 14 V229 h-94 V218 a14 14 90 0 1 14 -14" fill="#b2abd2" stroke="#b2abd2" stroke-width="0"/>
		<path d="M394 229 v11 a14 14 90 0 1 -14 14 H314 a14 14 90 0 1 -14 -14 V229 H94" fill="#d8daeb" stroke="#d8daeb" stroke-width="0"/>
		<rect x="300" y="204" width="94" height="50" fill="none" rx="14" stroke="#8073ac" stroke-width="2"/>
		<line x1="300" y1="229" x2="394" y2="229" stroke="#8073ac" stroke-width="1"/>
		<text x="308" y="221.75" fill="#000000" font-family="Verdana" font-size="12">Jouent_Dans</text>
	</g>
	<text x="288" y="143.71" fill="#b35806" font-family="Verdana" font-size="12">1,N</text>
	<text x="399" y="246" fill="#b35806" font-family="Verdana" font-size="12">1,N</text>
</g>

<!-- Entity CATEGORIES -->
<g>
	<g>
		<rect x="9" y="43" width="80" height="25" fill="#fdb863" stroke="none" stroke-width="0" opacity="1"/>
		<rect x="9" y="68" width="80" height="77" fill="#fee0b6" stroke="none" stroke-width="0" opacity="1"/>
		<rect x="9" y="43" width="80" height="102" fill="none" stroke="#e08214" stroke-width="2" opacity="1"/>
		<line x1="9" y1="68" x2="89" y2="68" stroke="#e08214" stroke-width="1"/>
	</g>
	<text x="17" y="60.75" fill="#000000" font-family="Verdana" font-size="12">Catégories</text>
	<text x="14" y="85.8" fill="#000000" font-family="Verdana" font-size="12">num_cat</text>
	<line x1="14" y1="88" x2="68" y2="88" stroke="#000000" stroke-width="1"/>
	<text x="14" y="102.8" fill="#000000" font-family="Verdana" font-size="12">nom</text>
	<text x="14" y="119.8" fill="#000000" font-family="Verdana" font-size="12">created_at</text>
	<text x="14" y="136.8" fill="#000000" font-family="Verdana" font-size="12">updated_at</text>
</g>

<!-- Entity FILMS -->
<g>
	<g>
		<rect x="203" y="9" width="80" height="25" fill="#fdb863" stroke="none" stroke-width="0" opacity="1"/>
		<rect x="203" y="34" width="80" height="145" fill="#fee0b6" stroke="none" stroke-width="0" opacity="1"/>
		<rect x="203" y="9" width="80" height="170" fill="none" stroke="#e08214" stroke-width="2" opacity="1"/>
		<line x1="203" y1="34" x2="283" y2="34" stroke="#e08214" stroke-width="1"/>
	</g>
	<text x="227" y="26.75" fill="#000000" font-family="Verdana" font-size="12">Films</text>
	<text x="208" y="51.8" fill="#000000" font-family="Verdana" font-size="12">num_film</text>
	<line x1="208" y1="54" x2="266" y2="54" stroke="#000000" stroke-width="1"/>
	<text x="208" y="68.8" fill="#000000" font-family="Verdana" font-size="12">nom</text>
	<text x="208" y="85.8" fill="#000000" font-family="Verdana" font-size="12">extrait</text>
	<text x="208" y="102.8" fill="#000000" font-family="Verdana" font-size="12">pitch</text>
	<text x="208" y="119.8" fill="#000000" font-family="Verdana" font-size="12">affiche</text>
	<text x="208" y="136.8" fill="#000000" font-family="Verdana" font-size="12">année</text>
	<text x="208" y="153.8" fill="#000000" font-family="Verdana" font-size="12">created_at</text>
	<text x="208" y="170.8" fill="#000000" font-family="Verdana" font-size="12">updated_at</text>
</g>

<!-- Entity REALISATEURS -->
<g>
	<g>
		<rect x="423" y="43" width="86" height="25" fill="#fdb863" stroke="none" stroke-width="0" opacity="1"/>
		<rect x="423" y="68" width="86" height="77" fill="#fee0b6" stroke="none" stroke-width="0" opacity="1"/>
		<rect x="423" y="43" width="86" height="102" fill="none" stroke="#e08214" stroke-width="2" opacity="1"/>
		<line x1="423" y1="68" x2="509" y2="68" stroke="#e08214" stroke-width="1"/>
	</g>
	<text x="429" y="60.75" fill="#000000" font-family="Verdana" font-size="12">Réalisateurs</text>
	<text x="428" y="85.8" fill="#000000" font-family="Verdana" font-size="12">num_real</text>
	<line x1="428" y1="88" x2="486" y2="88" stroke="#000000" stroke-width="1"/>
	<text x="428" y="102.8" fill="#000000" font-family="Verdana" font-size="12">nom</text>
	<text x="428" y="119.8" fill="#000000" font-family="Verdana" font-size="12">created_at</text>
	<text x="428" y="136.8" fill="#000000" font-family="Verdana" font-size="12">updated_at</text>
</g>

<!-- Entity ACTEURS -->
<g>
	<g>
		<rect x="426" y="178" width="80" height="25" fill="#fdb863" stroke="none" stroke-width="0" opacity="1"/>
		<rect x="426" y="203" width="80" height="77" fill="#fee0b6" stroke="none" stroke-width="0" opacity="1"/>
		<rect x="426" y="178" width="80" height="102" fill="none" stroke="#e08214" stroke-width="2" opacity="1"/>
		<line x1="426" y1="203" x2="506" y2="203" stroke="#e08214" stroke-width="1"/>
	</g>
	<text x="443" y="195.75" fill="#000000" font-family="Verdana" font-size="12">Acteurs</text>
	<text x="431" y="220.8" fill="#000000" font-family="Verdana" font-size="12">num_act</text>
	<line x1="431" y1="223" x2="485" y2="223" stroke="#000000" stroke-width="1"/>
	<text x="431" y="237.8" fill="#000000" font-family="Verdana" font-size="12">nom</text>
	<text x="431" y="254.8" fill="#000000" font-family="Verdana" font-size="12">created_at</text>
	<text x="431" y="271.8" fill="#000000" font-family="Verdana" font-size="12">updated_at</text>
</g>
</svg>